<svg width="1534" height="1534" xmlns="http://www.w3.org/2000/svg">
 <defs>
  <filter id="filter0_d" x="637" y="176" width="809" height="809" filterUnits="userSpaceOnUse" color-interpolation-filters="sRGB">
   <feGaussianBlur stdDeviation="2"/>
  </filter>
  <linearGradient id="paint0_linear" x1="0.196723" y1="1.192919" x2="0.698845" y2="0.448086">
   <stop stop-color="#1A237E" stop-opacity="0.4"/>
   <stop offset="1" stop-color="#1A237E" stop-opacity="0"/>
  </linearGradient>
  <radialGradient id="paint1_radial" cx="0" cy="0" r="1" gradientUnits="userSpaceOnUse" gradientTransform="translate(148.874 179.695) scale(1664.91 1663.79)">
   <stop stop-color="white" stop-opacity="0.1"/>
   <stop offset="1" stop-color="white" stop-opacity="0"/>
  </radialGradient>
 </defs>
 <g>
  <title>background</title>
  <rect x="-1" y="-1" width="3410.888807" height="3410.888807" id="canvas_background" fill="none"/>
 </g>
 <g>
  <title>Layer 1</title>
  <path d="m1534,0l-1534,0l0,1534l1534,0l0,-1534z" fill="white" id="svg_1"/>
  <path d="m1217,714l-418.64,0l-366.36,366.57l209.255,209.43l575.745,-576z" fill="#39CEFD" id="svg_2"/>
  <path d="m327.371,977l-209.371,-209.427l680.39,-680.573l418.61,0l-889.629,890z" fill="#39CEFD" id="svg_3"/>
  <path d="m641,1290.18l157.174,156.82l418.826,0l-366.522,-366l-209.478,209.18z" fill="#03569B" id="svg_4"/>
  <path d="m641,1290l310,-107.38l-100.979,-101.62l-209.021,209z" fill="url(#paint0_linear)" id="svg_5"/>
  <path d="m641.146,871.605l-209.273,209.275l209.272,209.27l209.273,-209.27l-209.272,-209.275z" fill="#16B9FD" id="svg_6"/>
  <path d="m1217,714.561l-366.333,366.219l366.333,366.22l-418.61,0l-157.094,-156.99l-209.371,-209.23l366.465,-366.219l418.61,0zm-418.61,-627.561l-680.39,679.935l209.371,209.23l889.629,-889.165l-418.61,0z" fill="url(#paint1_radial)" id="svg_7"/>
  <g id="svg_13">
   <g filter="url(#filter0_d)" id="svg_8">
    <path d="m1394,175l-707,0c-25.957,0 -47,21.043 -47,47l0,707c0,25.957 21.043,47 47,47l707,0c25.96,0 47,-21.043 47,-47l0,-707c0,-25.957 -21.04,-47 -47,-47z" fill="#F4F4F4" id="svg_9"/>
   </g>
   <g stroke="null" id="svg_15">
    <path stroke="null" fill="#08599D" stroke-width="0" d="m1026.047138,726.272572c-4.853538,0.486535 -9.815744,0.82289 -14.919304,0.82289l0,0c-4.565042,0 -8.99951,-0.266224 -13.325294,-0.660932l0,0l-37.455725,51.279605l-9.211473,-2.781617c-10.811323,-3.233851 -21.31264,-7.290959 -31.411041,-12.159199l0,0l-8.754447,-4.219177l2.252512,-64.412298c-7.960275,-5.935014 -15.387059,-12.541964 -22.26489,-19.78609l0,0l-59.219811,13.550293l-5.408365,-8.462313c-6.344237,-9.933346 -11.752567,-20.342572 -16.545898,-30.866793l0,0l-4.162471,-9.192272l40.209093,-47.407862c-2.513902,-10.038201 -4.178728,-20.400906 -5.038411,-30.959908l0,0l-53.283795,-30.009399l0.968438,-10.165949c1.142789,-12.159401 3.351645,-23.796659 5.990557,-34.982107l0,0l2.356101,-9.922525l59.432033,-8.76282c4.238417,-9.528001 9.228075,-18.557469 14.848472,-27.042471l0,0l-22.678034,-59.474332l6.844868,-7.140227c8.047001,-8.345735 16.660319,-15.914604 25.648634,-22.834778l0,0l7.786165,-5.980651l51.303245,34.321193c8.645969,-4.242142 17.688774,-7.731158 27.058134,-10.408968l0,0l18.597435,-61.468079l9.587058,-0.776388c5.163612,-0.405565 10.713487,-0.881004 16.747408,-0.881004l0,0c6.017716,0 11.55104,0.475439 16.714877,0.881004l0,0l9.586799,0.776388l18.798652,62.106064c9.010325,2.677111 17.743246,6.096732 26.111568,10.246661l0,0l52.021505,-34.809017l7.813254,5.981295c8.988557,6.908581 17.617734,14.500544 25.648997,22.811628l0,0l6.871767,7.140227l-23.374509,61.236524c5.092883,7.881798 9.684911,16.227717 13.60802,25.002241l0,0l61.287536,9.040969l2.383069,9.921881c2.677007,11.174333 4.875289,22.811573 5.990385,34.994179l0,0l0.968731,10.165305l-55.144793,31.052452c-0.826876,9.632838 -2.295979,19.114521 -4.488785,28.352393l0,0l41.547536,48.892199l-4.178555,9.226132c-4.777177,10.559848 -10.158505,21.00343 -16.5299,30.902254l0,0l-5.408313,8.438114l-60.688845,-13.850874c-6.431326,6.85008 -13.395677,13.155879 -20.839219,18.847211l0,0l2.312357,65.675736l-8.776267,4.230899c-10.109492,4.845108 -20.594294,8.913663 -31.405254,12.147642l0,0l-9.244522,2.781838l-37.537304,-51.407188l0,0l0.000017,0.000018l0.000002,0.000003zm48.163701,16.448285c3.237587,-1.147891 6.420494,-2.388436 9.570577,-3.70986l0,0l-2.16544,-62.024266l6.828577,-4.671612c10.228957,-7.07017 19.543898,-15.555357 27.81435,-25.18722l0,0l5.506252,-6.421273l57.424532,13.097544c1.724826,-3.071838 3.395043,-6.212923 5.005483,-9.423329l0,0l-39.278473,-46.260597l2.437558,-8.264839c3.465737,-11.904108 5.435489,-24.666309 6.017578,-37.983759l0,0l0.359121,-8.670828l52.173675,-29.371708c-0.543995,-3.558704 -1.169447,-7.09389 -1.88242,-10.641222l0,0l-58.050088,-8.553606l-3.122838,-7.998302c-4.668561,-11.962572 -10.844182,-23.159374 -18.216719,-33.487004l0,0l-4.875203,-6.885265l22.079602,-57.851481c-2.557334,-2.388344 -5.179921,-4.706172 -7.873151,-6.954825l0,0l-49.284481,32.953893l-7.258444,-4.080682c-10.751201,-6.027374 -22.378827,-10.605945 -34.642927,-13.573019l0,0l-7.932875,-1.935541l-17.797424,-58.790765c-1.730441,-0.092416 -3.411628,-0.139231 -5.049347,-0.139231l0,0c-1.670544,0 -3.351679,0.046815 -5.092935,0.139231l0,0l-17.672119,58.408423l-8.047364,1.831421c-12.476373,2.850957 -24.375668,7.499327 -35.45897,13.607818l0,0l-7.24217,4.010349l-48.48478,-32.431916c-2.676921,2.248654 -5.30507,4.566481 -7.84036,6.954825l0,0l21.491709,56.333192l-5.048984,6.896306c-7.873202,10.768215 -14.418846,22.568388 -19.326666,35.237511l0,0l-3.106702,8.032732l-56.183924,8.275899c-0.712697,3.547332 -1.343712,7.082518 -1.871502,10.641222l0,0l50.367425,28.363545l0.310005,8.739321c0.527651,14.107143 2.742277,27.645639 6.550844,40.303243l0,0l2.492255,8.322088l-38.038349,44.823534c1.599815,3.222092 3.264659,6.36314 5.005984,9.434794l0,0l55.85711,-12.808225l5.560863,6.421475c8.569522,9.992177 18.357866,18.673697 29.142065,25.883779l0,0l6.95915,4.624264l-2.127536,61.074088c3.155801,1.321423 6.349627,2.561969 9.586989,3.70986l0,0l35.355797,-48.428207l8.074333,1.054297c6.093956,0.823129 12.024599,1.356351 17.928223,1.356351l0,0c6.349575,0 12.753502,-0.590912 19.29918,-1.576275l0,0l8.145321,-1.216715l35.627621,48.810549l0,0l0.000017,0.000018l-0.000005,0zm16.116238,-125.764774l7.791348,12.74978l-49.393356,34.229403l-17.530748,-28.735232l0,0c-6.377079,1.657392 -13.080368,2.631805 -20.05562,2.631805l0,0c-48.267272,0 -87.377164,-41.670635 -87.377164,-93.03132l0,0c0,-51.406728 39.109892,-93.065861 87.377164,-93.065861l0,0c48.2128,0 87.333248,41.659133 87.333248,93.065861l0,0c0,21.107237 -6.659511,40.661662 -17.824358,56.275372l0,0l9.679486,15.88021m-33.228416,4.902596l1.539798,-1.042796l-14.081268,-23.077907l8.161405,-8.69372c10.670072,-11.394073 17.215491,-26.9378 17.215491,-44.243755l0,0c-0.059914,-34.599453 -26.361659,-62.615988 -58.806235,-62.685162l0,0c-32.520988,0.069192 -58.795506,28.050727 -58.849944,62.685162l0,0c0.054437,34.565004 26.356148,62.580858 58.849944,62.650694l0,0c7.258047,0 14.244528,-1.588181 21.007611,-4.346814l0,0l10.784026,-4.404689l14.179172,23.158987l0,0z" id="svg_12"/>
    <path stroke="null" fill="#08599D" stroke-width="0" d="m1272.791238,665.798861c21.736694,-26.869001 26.1059,-63.535938 14.281166,-94.372569l-43.638251,54.711391l-43.016589,-8.991795l-14.253501,-44.550416l43.527887,-54.584323c-29.941036,-8.098671 -62.92694,1.678581 -84.56788,28.441257c-22.823078,28.214393 -26.558103,67.285835 -12.431797,98.985716l-113.747025,140.63138c-12.103255,14.951581 -10.628774,37.628607 3.278106,50.636083c13.906869,12.99831 34.995036,11.42729 47.094088,-3.524456l113.613768,-140.492641c31.274478,10.8376 66.931359,1.453082 89.860041,-26.889614l-0.000011,-0.000012l-0.000002,-0.000001z" id="svg_14"/>
   </g>
  </g>
 </g>
</svg>